<mxfile host="app.diagrams.net" modified="2023-04-26T19:18:21.703Z" agent="Mozilla/5.0 (X11; Linux x86_64; rv:109.0) Gecko/20100101 Firefox/110.0" version="21.2.1" etag="_p-Vb_dVmoqeQs-a0Vrq" type="github">
  <diagram name="Page-1" id="q7kK7ZTcHR4QjJIBOsw3">
    <mxGraphModel>
      <root>
        <mxCell id="0" />
        <mxCell id="1" parent="0" />
      </root>
    </mxGraphModel>
  </diagram>
</mxfile>
